<svg xmlns="http://www.w3.org/2000/svg" width="4042" height="2843" fill="none" viewBox="0 0 4042 2843"><path fill="url(#a)" d="M3170.25 1675.64c-131.67 77.8-443.89 88.11-583.54 83.54h-76.06l-24.94 125.93v223.2c173.73-9.98 586.78-50.13 849.13-130.93 262.34-80.79 109.31-703.65 0-1004.982 395.26-42.394 630.92-524.936 180.79-503.739-450.12 21.197-643.39 150.872-508.72 399.001 107.73 198.5 153.78 621.36 163.34 807.98"/><mask id="c" width="1276" height="1642" x="2485" y="467" maskUnits="userSpaceOnUse" style="mask-type:alpha"><path fill="url(#b)" d="M3170.25 1675.64c-131.67 77.8-443.89 88.11-583.54 83.54h-76.06l-24.94 125.93v223.2c173.73-9.98 586.78-50.13 849.13-130.93 262.34-80.79 109.31-703.65 0-1004.982 395.26-42.394 630.92-524.936 180.79-503.739-450.12 21.197-643.39 150.872-508.72 399.001 107.73 198.5 153.78 621.36 163.34 807.98"/></mask><g mask="url(#c)"><path fill="#490d62" d="M3587.95 1473.64c-96.76 82.8-342.06 89.36-452.62 82.3L2889.7 780.379v-255.61l503.74-105.985 400.25 38.653 23.69 214.464-361.6 380.299c84.38 105.98 228.93 338.65 132.17 421.44"/><path fill="#260235" d="m2518.13 2178.13 234.41-441.39-294.26-69.83-54.86 391.52z"/><ellipse cx="3358.87" cy="607.596" fill="#f292c2" rx="389.34" ry="123.066" transform="rotate(-9.527 3358.87 607.596)"/><path fill="#f292c2" d="M3424.61 999.83c147.63-88.778 137.99-239.817 114.71-304.239V594.594l280.55-100.997-15.58 152.119-15.59 152.119z"/><path fill="#260235" d="M2994.09 691.011c-8.04-3.94-17.75-.617-21.69 7.422s-.62 17.749 7.42 21.689l7.14-14.556zm791.04-360.317-5.79-15.138-30.28 11.592 5.8 15.138 15.14-5.796zm-798.17 374.872-7.14 14.556c67.05 32.859 266.8 75.676 549.92 1.119l-4.13-15.675-4.13-15.675c-277.48 73.074-468.92 29.773-527.39 1.12zm538.65 0 4.13 15.675c143.99-37.92 218.52-109.954 251.33-186.938 32.46-76.152 22.9-154.414 4.06-203.609L3770 336.49l-15.14 5.796c16.49 43.074 24.89 112.443-3.61 179.307-28.14 66.033-93.47 132.403-229.77 168.298z"/></g><path fill="url(#d)" d="M3451.36 1794.66c-131.67 77.81-443.89 88.11-583.54 83.54h-76.06l-24.93 125.94v223.19c173.73-9.98 586.78-50.13 849.12-130.92 262.34-80.8 109.31-703.66 0-1004.99 395.26-42.39 630.92-524.935 180.8-503.738-450.13 21.197-643.39 150.872-508.73 399.001 107.73 198.507 153.78 621.357 163.34 807.977"/><mask id="f" width="1276" height="1641" x="2766" y="587" maskUnits="userSpaceOnUse" style="mask-type:alpha"><path fill="url(#e)" d="M3451.36 1794.66c-131.67 77.81-443.89 88.11-583.54 83.54h-76.06l-24.93 125.94v223.19c173.73-9.98 586.78-50.13 849.12-130.92 262.34-80.8 109.31-703.66 0-1004.99 395.26-42.39 630.92-524.935 180.8-503.738-450.13 21.197-643.39 150.872-508.73 399.001 107.73 198.507 153.78 621.357 163.34 807.977"/></mask><g mask="url(#f)"><path fill="#520a70" d="M3869.07 1592.67c-96.76 82.79-342.06 89.36-452.62 82.29l-245.64-775.558v-255.61l503.74-105.985 400.25 38.653 23.69 214.463-361.59 380.297c84.37 105.99 228.93 338.65 132.17 421.45"/><path fill="#260235" d="m2799.24 2297.15 234.42-441.39-294.27-69.83-54.86 391.52z"/><ellipse cx="3638.37" cy="716.993" fill="#ff97cb" rx="389.34" ry="132.827" transform="rotate(-9.527 3638.37 716.993)"/><path fill="#ff97cb" d="M3705.73 1118.85c147.63-88.78 137.98-239.814 114.71-304.236V713.617l280.55-100.998-15.59 152.12-15.59 152.119z"/><path fill="#260235" d="M3275.2 810.033c-8.03-3.939-17.74-.616-21.68 7.423s-.62 17.749 7.42 21.688l7.13-14.555zm791.05-360.316-5.8-15.138-30.27 11.592 5.79 15.138 15.14-5.796zm-798.18 374.872-7.13 14.555c67.05 32.859 266.8 75.676 549.91 1.12l-4.13-15.675-4.12-15.675c-277.49 73.074-468.93 29.773-527.4 1.119zm538.65 0 4.13 15.675c144-37.92 218.53-109.954 251.34-186.938 32.45-76.153 22.9-154.414 4.06-203.609l-15.14 5.796-15.14 5.796c16.5 43.073 24.89 112.442-3.6 179.307-28.15 66.033-93.47 132.403-229.77 168.298z"/></g><path fill="url(#g)" d="M1412.71 47.783c-19.97-165.668 376.35 145.852 689.23 231.38 11.29 2.675 22.61 5.489 33.94 8.439a620 620 0 0 0 22.47 4.569l-3.95.365c432.12 117.92 885.75 432.26 940.35 820.084 51.62 366.58-94.76 786.78-311.71 933.91 2.07 185.7-42.9 543.93-239.41 491.27-196.5-52.65-247.29-447.54-248.13-638.4-74.39 2.91-218.95-26.68-201.99-168.33-446.8-253.53-1333.911-766.581-1307.976-790.521s120.532-46.551 164.588-54.863c53.298-447.95 235.528-564.811 638.618-622.63-75.19-39.221-163.42-110.739-176.03-215.273"/><rect width="391.52" height="695.759" x="1394.59" y="425.642" fill="#f6f6f6" stroke="#260235" stroke-width="19.95" rx="195.76" transform="rotate(11.034 1394.59 425.642)"/><rect width="391.52" height="695.759" x="1945.31" y="533.034" fill="#f6f6f6" stroke="#260235" stroke-width="19.95" rx="195.76" transform="rotate(11.034 1945.31 533.034)"/><rect width="153.622" height="267.209" x="1422.71" y="709.876" fill="#260235" rx="76.811" transform="rotate(11.034 1422.71 709.876)"/><path stroke="#260235" stroke-linecap="round" stroke-width="32.419" d="M3403.98 1540.3c57.97 4.86 205.85 7.72 333.67-19.74"/><path fill="#ffb7b7" d="M1933.91 707.382c158.6 36.907 238.99 134.247 259.35 178.303L1867.83 1037.8l-1073.568 96.01L82.294 737.307l325.436-91.022c212.468 81.795 450.955 315.044 543.639 421.445 280.301-155.611 771.821-305.07 982.541-360.348"/><path fill="#c1fe00" d="M761.463 1034.69 71.119 709.691C38.039 694.117 0 718.253 0 754.815V2279.62a49.87 49.87 0 0 0 26.505 44.06l704.303 373.57a49.8 49.8 0 0 0 15.555 5.19l242.752 38.52c5.552.88 11.215.81 16.745-.19l1292.83-235.28c24.05-4.38 41.38-25.53 40.94-49.97l-28.12-1562.756c-.55-30.589-28.25-53.476-58.39-48.243L975.529 1066.35c-5.266.91-10.645.98-15.931.18l-184.29-27.64a49.7 49.7 0 0 1-13.845-4.2"/><path fill="url(#h)" d="M2544.88 1806.09v412.72l44.89-320.45 178.3-92.27c40.73 249.38 62.1 748.13-178.3 748.13s-296.34-413.96-294.26-620.94c-74.82 59.43-238.66 135.66-295.51-34.92-71.08-213.21 137.15-320.45 335.41-305.48 158.6 11.97 205.73 147.13 209.47 213.21"/><path stroke="#260235" stroke-linecap="round" stroke-width="19.95" d="m2539.89 2217.56 8.73-357.85c-1.24-47.8-8.73-143.39-56.11-192.02-49.87-51.19-127.18-101-300.5-64.84"/><path fill="#270235" d="M2791.76 2047.99c-4.98-83.79-22.03-204.49-29.92-254.37l130.92 159.61z"/><path stroke="#260235" stroke-linecap="round" stroke-width="64.838" d="M2078.51 436.837c34.64-8.774 101.48-18.63 174.26 48.75"/><path stroke="#ff7ac6" stroke-linecap="round" stroke-width="192.019" d="M2730.23 829.576c81.45 96.575 216.12 293.824 114.43 629.354"/><path stroke="#260235" stroke-linecap="round" stroke-width="64.838" d="M1541.14 364.184c34.65-8.774 101.49-18.629 174.26 48.751"/><path stroke="#260235" stroke-linecap="round" stroke-width="49.875" d="M2093.51 275.962c180.38 48.628 594.51 207.73 807.98 455.111 266.83 309.227 254.36 615.957 89.77 1058.597M758.103 1057.76l-36.16 1716.95m281.797 42.39-32.421-1741.89"/><defs><linearGradient id="a" x1="3727.6" x2="2311.15" y1="1118.85" y2="2107.06" gradientUnits="userSpaceOnUse"><stop offset=".056" stop-color="#ff1f9f"/><stop offset=".547" stop-color="#99135f"/></linearGradient><linearGradient id="b" x1="3359.77" x2="2485.71" y1="1179.38" y2="2048.37" gradientUnits="userSpaceOnUse"><stop stop-color="#ff1f9f"/><stop offset="1" stop-color="#78164e"/></linearGradient><linearGradient id="d" x1="3512.46" x2="2592.26" y1="1527.83" y2="2226.08" gradientUnits="userSpaceOnUse"><stop offset=".056" stop-color="#ff1f9f"/><stop offset=".939" stop-color="#99135f"/></linearGradient><linearGradient id="e" x1="3640.89" x2="2766.83" y1="1298.4" y2="2167.39" gradientUnits="userSpaceOnUse"><stop stop-color="#ff1f9f"/><stop offset="1" stop-color="#78164e"/></linearGradient><linearGradient id="h" x1="1915.21" x2="2793.01" y1="1783.65" y2="1915.82" gradientUnits="userSpaceOnUse"><stop stop-color="#ff1f9f"/><stop offset="1" stop-color="#ff3aaa"/></linearGradient><radialGradient id="g" cx="0" cy="0" r="1" gradientTransform="rotate(184.242 1372.315 458.178)scale(1297.82 1184.08)" gradientUnits="userSpaceOnUse"><stop stop-color="#ff73c3"/><stop offset="1" stop-color="#ff1f9f"/></radialGradient></defs></svg>