<svg width="4042" height="2843" viewBox="0 0 4042 2843" fill="none" xmlns="http://www.w3.org/2000/svg">
<path d="M3170.25 1675.64C3038.58 1753.44 2726.36 1763.75 2586.71 1759.18H2510.65L2485.71 1885.11V2108.31C2659.44 2098.33 3072.49 2058.18 3334.84 1977.38C3597.18 1896.59 3444.15 1273.73 3334.84 972.398C3730.1 930.004 3965.76 447.462 3515.63 468.659C3065.51 489.856 2872.24 619.531 3006.91 867.66C3114.64 1066.16 3160.69 1489.02 3170.25 1675.64Z" fill="url(#paint0_linear_577_20)"/>
<mask id="mask0_577_20" style="mask-type:alpha" maskUnits="userSpaceOnUse" x="2485" y="467" width="1276" height="1642">
<path d="M3170.25 1675.64C3038.58 1753.44 2726.36 1763.75 2586.71 1759.18H2510.65L2485.71 1885.11V2108.31C2659.44 2098.33 3072.49 2058.18 3334.84 1977.38C3597.18 1896.59 3444.15 1273.73 3334.84 972.398C3730.1 930.004 3965.76 447.462 3515.63 468.659C3065.51 489.856 2872.24 619.531 3006.91 867.66C3114.64 1066.16 3160.69 1489.02 3170.25 1675.64Z" fill="url(#paint1_linear_577_20)"/>
</mask>
<g mask="url(#mask0_577_20)">
<path d="M3587.95 1473.64C3491.19 1556.44 3245.89 1563 3135.33 1555.94L2889.7 780.379V524.769L3393.44 418.784L3793.69 457.437L3817.38 671.901L3455.78 1052.2C3540.16 1158.18 3684.71 1390.85 3587.95 1473.64Z" fill="#490D62"/>
<path d="M2518.13 2178.13L2752.54 1736.74L2458.28 1666.91L2403.42 2058.43L2518.13 2178.13Z" fill="#260235"/>
<ellipse cx="3358.87" cy="607.596" rx="389.34" ry="123.066" transform="rotate(-9.52697 3358.87 607.596)" fill="#F292C2"/>
<path d="M3424.61 999.83C3572.24 911.052 3562.6 760.013 3539.32 695.591V594.594L3819.87 493.597L3804.29 645.716L3788.7 797.835L3424.61 999.83Z" fill="#F292C2"/>
<path d="M2994.09 691.011C2986.05 687.071 2976.34 690.394 2972.4 698.433C2968.46 706.472 2971.78 716.182 2979.82 720.122L2986.96 705.566L2994.09 691.011ZM3785.13 330.694L3779.34 315.556L3749.06 327.148L3754.86 342.286L3770 336.49L3785.13 330.694ZM2986.96 705.566L2979.82 720.122C3046.87 752.981 3246.62 795.798 3529.74 721.241L3525.61 705.566L3521.48 689.891C3244 762.965 3052.56 719.664 2994.09 691.011L2986.96 705.566ZM3525.61 705.566L3529.74 721.241C3673.73 683.321 3748.26 611.287 3781.07 534.303C3813.53 458.151 3803.97 379.889 3785.13 330.694L3770 336.49L3754.86 342.286C3771.35 385.36 3779.75 454.729 3751.25 521.593C3723.11 587.626 3657.78 653.996 3521.48 689.891L3525.61 705.566Z" fill="#260235"/>
</g>
<path d="M3451.36 1794.66C3319.69 1872.47 3007.47 1882.77 2867.82 1878.2H2791.76L2766.83 2004.14V2227.33C2940.56 2217.35 3353.61 2177.2 3615.95 2096.41C3878.29 2015.61 3725.26 1392.75 3615.95 1091.42C4011.21 1049.03 4246.87 566.485 3796.75 587.682C3346.62 608.879 3153.36 738.554 3288.02 986.683C3395.75 1185.19 3441.8 1608.04 3451.36 1794.66Z" fill="url(#paint2_linear_577_20)"/>
<mask id="mask1_577_20" style="mask-type:alpha" maskUnits="userSpaceOnUse" x="2766" y="587" width="1276" height="1641">
<path d="M3451.36 1794.66C3319.69 1872.47 3007.47 1882.77 2867.82 1878.2H2791.76L2766.83 2004.14V2227.33C2940.56 2217.35 3353.61 2177.2 3615.95 2096.41C3878.29 2015.61 3725.26 1392.75 3615.95 1091.42C4011.21 1049.03 4246.87 566.485 3796.75 587.682C3346.62 608.879 3153.36 738.554 3288.02 986.683C3395.75 1185.19 3441.8 1608.04 3451.36 1794.66Z" fill="url(#paint3_linear_577_20)"/>
</mask>
<g mask="url(#mask1_577_20)">
<path d="M3869.07 1592.67C3772.31 1675.46 3527.01 1682.03 3416.45 1674.96L3170.81 899.402V643.792L3674.55 537.807L4074.8 576.46L4098.49 790.923L3736.9 1171.22C3821.27 1277.21 3965.83 1509.87 3869.07 1592.67Z" fill="#520A70"/>
<path d="M2799.24 2297.15L3033.66 1855.76L2739.39 1785.93L2684.53 2177.45L2799.24 2297.15Z" fill="#260235"/>
<ellipse cx="3638.37" cy="716.993" rx="389.34" ry="132.827" transform="rotate(-9.52697 3638.37 716.993)" fill="#FF97CB"/>
<path d="M3705.73 1118.85C3853.36 1030.07 3843.71 879.036 3820.44 814.614V713.617L4100.99 612.619L4085.4 764.739L4069.81 916.858L3705.73 1118.85Z" fill="#FF97CB"/>
<path d="M3275.2 810.033C3267.17 806.094 3257.46 809.417 3253.52 817.456C3249.58 825.495 3252.9 835.205 3260.94 839.144L3268.07 824.589L3275.2 810.033ZM4066.25 449.717L4060.45 434.579L4030.18 446.171L4035.97 461.309L4051.11 455.513L4066.25 449.717ZM3268.07 824.589L3260.94 839.144C3327.99 872.003 3527.74 914.82 3810.85 840.264L3806.72 824.589L3802.6 808.914C3525.11 881.988 3333.67 838.687 3275.2 810.033L3268.07 824.589ZM3806.72 824.589L3810.85 840.264C3954.85 802.344 4029.38 730.31 4062.19 653.326C4094.64 577.173 4085.09 498.912 4066.25 449.717L4051.11 455.513L4035.97 461.309C4052.47 504.382 4060.86 573.751 4032.37 640.616C4004.22 706.649 3938.9 773.019 3802.6 808.914L3806.72 824.589Z" fill="#260235"/>
</g>
<path d="M1412.71 47.7825C1392.74 -117.885 1789.06 193.635 2101.94 279.163C2113.23 281.838 2124.55 284.652 2135.88 287.602C2143.44 289.281 2150.93 290.809 2158.35 292.171L2154.4 292.536C2586.52 410.456 3040.15 724.796 3094.75 1112.62C3146.37 1479.2 2999.99 1899.4 2783.04 2046.53C2785.11 2232.23 2740.14 2590.46 2543.63 2537.8C2347.13 2485.15 2296.34 2090.26 2295.5 1899.4C2221.11 1902.31 2076.55 1872.72 2093.51 1731.07C1646.71 1477.54 759.599 964.489 785.534 940.549C811.469 916.609 906.066 893.998 950.122 885.686C1003.42 437.736 1185.65 320.875 1588.74 263.056C1513.55 223.835 1425.32 152.317 1412.71 47.7825Z" fill="url(#paint4_radial_577_20)"/>
<rect x="1394.59" y="425.642" width="391.52" height="695.759" rx="195.76" transform="rotate(11.0343 1394.59 425.642)" fill="#F6F6F6" stroke="#260235" stroke-width="19.9501"/>
<rect x="1945.31" y="533.034" width="391.52" height="695.759" rx="195.76" transform="rotate(11.0343 1945.31 533.034)" fill="#F6F6F6" stroke="#260235" stroke-width="19.9501"/>
<rect x="1422.71" y="709.876" width="153.622" height="267.209" rx="76.811" transform="rotate(11.0343 1422.71 709.876)" fill="#260235"/>
<path d="M3403.98 1540.3C3461.95 1545.16 3609.83 1548.02 3737.65 1520.56" stroke="#260235" stroke-width="32.4189" stroke-linecap="round"/>
<path d="M1933.91 707.382C2092.51 744.289 2172.9 841.629 2193.26 885.685L1867.83 1037.8L794.262 1133.81L82.2942 737.307L407.73 646.285C620.198 728.08 858.685 961.329 951.369 1067.73C1231.67 912.119 1723.19 762.66 1933.91 707.382Z" fill="#FFB7B7"/>
<path d="M761.463 1034.69L71.1189 709.691C38.0388 694.117 0 718.253 0 754.815V2279.62C0 2298.08 10.1967 2315.03 26.505 2323.68L730.808 2697.25C735.671 2699.83 740.927 2701.58 746.363 2702.44L989.115 2740.96C994.667 2741.84 1000.33 2741.77 1005.86 2740.77L2298.69 2505.49C2322.74 2501.11 2340.07 2479.96 2339.63 2455.52L2311.51 892.764C2310.96 862.175 2283.26 839.288 2253.12 844.521L975.529 1066.35C970.263 1067.26 964.884 1067.33 959.598 1066.53L775.308 1038.89C770.513 1038.17 765.849 1036.76 761.463 1034.69Z" fill="#C1FE00"/>
<path d="M2544.88 1806.09V2218.81L2589.77 1898.36L2768.07 1806.09C2808.8 2055.47 2830.17 2554.22 2589.77 2554.22C2349.37 2554.22 2293.43 2140.26 2295.51 1933.28C2220.69 1992.71 2056.85 2068.94 2000 1898.36C1928.92 1685.15 2137.15 1577.91 2335.41 1592.88C2494.01 1604.85 2541.14 1740.01 2544.88 1806.09Z" fill="url(#paint5_linear_577_20)"/>
<path d="M2539.89 2217.56L2548.62 1859.71C2547.38 1811.91 2539.89 1716.32 2492.51 1667.69C2442.64 1616.5 2365.33 1566.69 2192.01 1602.85" stroke="#260235" stroke-width="19.9501" stroke-linecap="round"/>
<path d="M2791.76 2047.99C2786.78 1964.2 2769.73 1843.5 2761.84 1793.62L2892.76 1953.23L2791.76 2047.99Z" fill="#270235"/>
<path d="M2078.51 436.837C2113.15 428.063 2179.99 418.207 2252.77 485.587" stroke="#260235" stroke-width="64.8377" stroke-linecap="round"/>
<path d="M2730.23 829.576C2811.68 926.151 2946.35 1123.4 2844.66 1458.93" stroke="#FF7AC6" stroke-width="192.019" stroke-linecap="round"/>
<path d="M1541.14 364.184C1575.79 355.41 1642.63 345.555 1715.4 412.935" stroke="#260235" stroke-width="64.8377" stroke-linecap="round"/>
<path d="M2093.51 275.962C2273.89 324.59 2688.02 483.692 2901.49 731.073C3168.32 1040.3 3155.85 1347.03 2991.26 1789.67" stroke="#260235" stroke-width="49.8752" stroke-linecap="round"/>
<path d="M758.103 1057.76L721.943 2774.71M1003.74 2817.1L971.319 1075.21" stroke="#260235" stroke-width="49.8752" stroke-linecap="round"/>
<defs>
<linearGradient id="paint0_linear_577_20" x1="3727.6" y1="1118.85" x2="2311.15" y2="2107.06" gradientUnits="userSpaceOnUse">
<stop offset="0.0557305" stop-color="#FF1F9F"/>
<stop offset="0.546616" stop-color="#99135F"/>
</linearGradient>
<linearGradient id="paint1_linear_577_20" x1="3359.77" y1="1179.38" x2="2485.71" y2="2048.37" gradientUnits="userSpaceOnUse">
<stop stop-color="#FF1F9F"/>
<stop offset="1" stop-color="#78164E"/>
</linearGradient>
<linearGradient id="paint2_linear_577_20" x1="3512.46" y1="1527.83" x2="2592.26" y2="2226.08" gradientUnits="userSpaceOnUse">
<stop offset="0.0557305" stop-color="#FF1F9F"/>
<stop offset="0.938894" stop-color="#99135F"/>
</linearGradient>
<linearGradient id="paint3_linear_577_20" x1="3640.89" y1="1298.4" x2="2766.83" y2="2167.39" gradientUnits="userSpaceOnUse">
<stop stop-color="#FF1F9F"/>
<stop offset="1" stop-color="#78164E"/>
</linearGradient>
<radialGradient id="paint4_radial_577_20" cx="0" cy="0" r="1" gradientUnits="userSpaceOnUse" gradientTransform="translate(2706.98 1016.61) rotate(-175.758) scale(1297.82 1184.08)">
<stop stop-color="#FF73C3"/>
<stop offset="1" stop-color="#FF1F9F"/>
</radialGradient>
<linearGradient id="paint5_linear_577_20" x1="1915.21" y1="1783.65" x2="2793.01" y2="1915.82" gradientUnits="userSpaceOnUse">
<stop stop-color="#FF1F9F"/>
<stop offset="1" stop-color="#FF3AAA"/>
</linearGradient>
</defs>
</svg>
